<?xml version="1.0" encoding="UTF-8" standalone="no"?>
<!-- Created with Inkscape (http://www.inkscape.org/) -->

<svg
   width="115.96396mm"
   height="18.929594mm"
   viewBox="0 0 115.96396 18.929594"
   version="1.1"
   id="svg1"
   inkscape:version="1.4 (86a8ad7, 2024-10-11)"
   sodipodi:docname="logo.svg"
   xmlns:inkscape="http://www.inkscape.org/namespaces/inkscape"
   xmlns:sodipodi="http://sodipodi.sourceforge.net/DTD/sodipodi-0.dtd"
   xmlns="http://www.w3.org/2000/svg"
   xmlns:svg="http://www.w3.org/2000/svg">
  <sodipodi:namedview
     id="namedview1"
     pagecolor="#ffffff"
     bordercolor="#111111"
     borderopacity="1"
     inkscape:showpageshadow="0"
     inkscape:pageopacity="0"
     inkscape:pagecheckerboard="1"
     inkscape:deskcolor="#d1d1d1"
     inkscape:document-units="mm"
     inkscape:zoom="2.8284271"
     inkscape:cx="257.9172"
     inkscape:cy="200.81833"
     inkscape:window-width="2560"
     inkscape:window-height="1566"
     inkscape:window-x="-11"
     inkscape:window-y="-11"
     inkscape:window-maximized="1"
     inkscape:current-layer="layer1">
    <inkscape:page
       x="-8.672202e-15"
       y="0"
       width="115.96397"
       height="18.929594"
       id="page2"
       margin="0"
       bleed="0" />
  </sodipodi:namedview>
  <defs
     id="defs1">
      <linearGradient id="gradient1" x1="0%" y1="0%" x2="100%" y2="100%">
      <stop offset="0%" style="stop-color:#ba9923;stop-opacity:1" />
      <stop offset="50%" style="stop-color:#ffedaa;stop-opacity:1" />
      <stop offset="100%" style="stop-color:#9f8218;stop-opacity:1" />
    </linearGradient>
     </defs>
  <g
     inkscape:label="Layer 1"
     inkscape:groupmode="layer"
     id="layer1"
     transform="translate(-7.8682529,-82.307762)">
    <path
       id="path36"
       style="font-size:17.6389px;line-height:0.9;font-family:Misto;-inkscape-font-specification:'Misto, @wght=700';font-variation-settings:'wght' 700;text-align:center;letter-spacing:0px;text-anchor:middle;fill-opacity:1;stroke:none;stroke-width:0.5;stroke-linecap:round;stroke-linejoin:round;stroke-opacity:1;paint-order:fill markers stroke"
       d="m 50.240344,82.30776 c -0.314168,1.92e-4 -0.626786,0.0043 -0.93741,0.01189 -2.961069,0.07234 -5.732136,0.536683 -8.136971,1.37511 -0.226077,0.07882 -0.449567,0.161529 -0.671794,0.248046 -0.988198,0.384725 -1.994065,0.872488 -2.953308,1.490349 -1.496658,0.964017 -2.422983,1.951688 -2.951241,2.589506 -0.03066,0.03454 0.01265,0.06373 0.03357,0.03721 0.96561,-1.087817 1.897758,-1.783715 3.017387,-2.466515 0.967469,-0.576116 1.972913,-1.021265 2.956925,-1.369426 0.221301,-0.07829 0.445375,-0.15232 0.670243,-0.222725 2.38805,-0.74769 5.133171,-1.111684 8.04292,-1.132748 2.452414,-0.01776 5.017597,0.258618 7.337537,0.73639 1.187581,0.244573 2.085161,0.494308 2.740401,0.687296 0.261833,0.07711 0.479741,0.142645 0.658358,0.193787 0.14163,0.04055 0.272488,0.07459 0.392224,0.103353 0.435244,0.104576 0.728794,0.146551 0.855762,0.185518 0.02413,0.0068 0.04212,-0.02222 0.02532,-0.04082 -0.0899,-0.103114 -0.270195,-0.354204 -0.671794,-0.621151 -0.109041,-0.07248 -0.233497,-0.145229 -0.373103,-0.214974 -0.175855,-0.08785 -0.395873,-0.18227 -0.664043,-0.28112 -0.665113,-0.245167 -1.606186,-0.50805 -2.820499,-0.736389 -2.083608,-0.391801 -4.351324,-0.573915 -6.550505,-0.572575 z m 10.763684,1.451074 c -0.01678,0.0039 -0.03227,0.01211 -0.04496,0.02377 -0.03936,0.03521 -0.04456,0.09494 -0.01189,0.136426 0.478858,0.602782 0.927368,1.18823 1.027328,1.779737 0.09996,0.591508 -0.123671,1.207683 -1.048515,1.940966 -0.105896,0.08211 0.01631,0.241289 0.12299,0.160197 8.66e-4,-6.34e-4 0.0012,-8e-4 0.0021,-0.0016 0.7302,-0.534339 1.392601,-0.800137 1.987992,-0.798918 0.596098,0.0012 1.13351,0.263461 1.632975,0.822172 0.08559,0.0923 0.228406,-0.0256 0.153996,-0.127124 -0.61845,-0.817551 -0.765811,-1.449716 -0.669726,-2.027266 0.09609,-0.577549 0.448002,-1.112286 0.865063,-1.704806 0.082,-0.105378 -0.07575,-0.228585 -0.15813,-0.123506 -0.551591,0.639003 -1.087143,1.028877 -1.675866,1.064534 -0.588723,0.03566 -1.259954,-0.279519 -2.089795,-1.117244 -0.02432,-0.02473 -0.05972,-0.0351 -0.09354,-0.02739 z m 3.691248,0.410311 c -0.0018,0.0027 -0.0033,0.0056 -0.0052,0.0083 -0.07422,0.07609 -0.14904,0.147163 -0.223759,0.213941 0.0765,-0.07235 0.152718,-0.14609 0.228927,-0.222209 z m -35.853109,3.584278 c -0.8547,-0.0026 -1.723675,0.162494 -2.561084,0.513147 -6.89e-4,-4e-6 -0.0014,-4e-6 -0.0021,0 -5.18e-4,3.42e-4 -0.001,6.86e-4 -0.0015,0.001 -3.56e-4,1.49e-4 -6.78e-4,3.68e-4 -0.001,5.17e-4 -3.355226,1.407835 -4.935785,5.273188 -3.52795,8.628414 1.407325,3.354009 5.270934,4.934659 8.625314,3.529499 0.0033,-0.001 0.0066,-0.003 0.0098,-0.004 1.62086,-0.682018 2.82537,-1.938292 3.479374,-3.432864 0.0118,-0.01802 0.02037,-0.03795 0.02532,-0.05891 0.674235,-1.582247 0.73455,-3.424076 0.01705,-5.134053 -1.055876,-2.51642 -3.494464,-4.034775 -6.063196,-4.042647 z m 5.17e-4,0.368969 c 0.45201,0.0012 0.899676,0.05371 1.335319,0.150895 l -0.791166,0.331763 c -0.489525,-0.205878 -1.008077,-0.343677 -1.54926,-0.401009 0.335494,-0.05444 0.671322,-0.08251 1.005107,-0.08165 z m 65.356217,0.238745 c -1.9932,0 -5.6441,1.270066 -5.6441,6.067847 v 0.722953 c 0,4.797781 3.6509,6.067843 5.6441,6.067843 1.99319,0 5.644617,-1.270062 5.644617,-6.067843 v -0.722953 c 0,-4.797781 -3.633787,-6.067847 -5.644617,-6.067847 z m 11.994619,0 c -1.9932,0 -5.64462,1.270066 -5.64462,6.067847 v 0.722953 c 0,4.797781 3.65142,6.067843 5.64462,6.067843 1.9932,0 5.64461,-1.270062 5.64461,-6.067843 v -0.722953 c 0,-4.797781 -3.63378,-6.067847 -5.64461,-6.067847 z m 11.99461,0 c -1.99319,0 -5.64461,1.270066 -5.64461,6.067847 v 0.722953 c 0,4.797781 3.65142,6.067843 5.64461,6.067843 1.9932,0 5.6441,-1.270062 5.6441,-6.067843 v -0.722953 c 0,-4.797781 -3.63326,-6.067847 -5.6441,-6.067847 z m -103.722863,0.01757 c -4.7272251,0 -6.3675701,3.36913 -6.3675701,4.868437 0,1.569862 1.7991654,1.746147 3.4395831,1.746147 h 3.933094 c 2.592919,0 4.7625,3.3e-5 4.7625,1.18184 0,1.340556 -3.12191,1.99316 -5.2033,1.99316 h -0.952397 c -2.381251,0 -3.951385,-0.493785 -5.4859701,-2.01073 l -0.7229533,0.141076 c 0.829029,2.89278 2.7871484,4.938713 6.8264564,4.938713 3.704169,0 6.06733,-2.416108 6.06733,-4.867916 0,-1.728612 -2.081251,-1.852083 -3.21014,-1.852083 h -4.78007 c -3.1926408,0 -4.1098264,-0.335586 -4.1098264,-1.07642 0,-1.428751 3.3514564,-1.957504 5.2740964,-1.957504 h 0.952397 c 2.010834,0 4.021493,0.37045 5.467883,1.97559 l 0.74104,-0.141593 c -0.864306,-3.245558 -3.298401,-4.938717 -6.632153,-4.938717 z m 67.739534,0.01757 c -3.42195,0 -5.556286,2.522566 -5.679756,5.768124 v 1.075903 c 0,3.36903 2.25781,5.997046 5.94434,5.997046 2.43417,0 5.397086,-1.463849 5.397086,-5.203296 -0.19403,-2.099029 -3.93306,-2.575037 -5.66167,-2.575037 -3.42195,0 -4.780336,1.040247 -5.238956,1.569414 0,-2.434168 2.45156,-3.56309 5.22087,-3.56309 1.81681,0 3.95107,0.300032 5.16816,1.94045 l 0.582393,-0.105937 c -0.26458,-2.786947 -2.698577,-4.903577 -5.732467,-4.903577 z m -51.448022,0.03566 c 1.063011,0.347256 2.028423,0.978219 2.776575,1.844332 l -1.369943,0.574642 c -0.629039,-0.849249 -1.420048,-1.55787 -2.325956,-2.032954 z m -3.591512,0.112138 c 0.60183,-0.01176 1.179674,0.08465 1.724442,0.269751 l -1.208711,0.507463 c -0.276447,-0.261965 -0.564567,-0.515071 -0.867131,-0.756543 0.117861,-0.01046 0.235243,-0.0184 0.3514,-0.02067 z m 9.672278,0.08165 v 12.347055 h 0.529166 v -5.185735 h 7.760767 c 1.499307,0 2.76934,-0.970138 2.76934,-2.38125 v -0.81132 c 0,-2.328335 -0.03542,-3.96875 -4.72736,-3.96875 z m 12.205973,0 v 12.347055 h 0.511597 v -4.639003 h 10.79469 v 4.638993 h 0.511596 V 88.625721 h -0.511596 v 4.638993 h -10.79469 v -4.638993 z m 13.669967,0 v 12.347055 h 0.511596 V 88.625725 Z m 2.38125,0 V 100.97278 H 75.590218 V 97.886137 H 65.571191 v -2.82205 h 8.572604 v -0.511596 h -8.572604 v -2.840137 h 10.019027 v -3.086633 z m -38.575423,0.235127 c 0.257453,0.204376 0.504123,0.417416 0.742073,0.636654 l -0.840259,0.352433 c 0.02009,-0.32569 0.05181,-0.655207 0.09819,-0.989087 z m -0.424781,0.01344 c -0.05277,0.390747 -0.08546,0.775602 -0.102836,1.156002 l -1.156518,0.484725 c 0.29458,-0.611944 0.711501,-1.169315 1.259354,-1.640727 z m 3.286621,0.134876 c 0.946814,0.43011 1.775051,1.131572 2.428793,1.990059 l -2.045354,0.858346 c -0.504755,-0.804424 -1.105793,-1.561347 -1.795756,-2.255676 z m -4.241084,0.325561 c -0.339107,0.427025 -0.604589,0.894554 -0.800985,1.389063 l -0.7922,0.332279 c 0.410702,-0.66007 0.946855,-1.246993 1.593185,-1.721342 z m 2.413806,0.441317 c 0.703115,0.68911 1.313195,1.442273 1.823144,2.244308 l -2.70061,1.132747 c -0.207277,-0.917759 -0.303052,-1.884722 -0.273885,-2.894397 z m -1.574581,0.660425 c -0.01348,1.001847 0.09259,1.964707 0.307475,2.880444 l -1.937867,0.812871 c -0.154727,-1.068025 -0.07482,-2.150444 0.281637,-3.127458 z m 7.797973,0.138493 c 0.311909,0.410356 0.577743,0.8667 0.786516,1.364258 0.194394,0.46329 0.327089,0.936511 0.404626,1.411283 l -1.398364,0.586527 c -0.218845,-0.986349 -0.628695,-1.938866 -1.189075,-2.776058 z m -9.601997,0.618567 c -0.295714,0.979245 -0.343958,2.040226 -0.178801,3.084049 l -1.370976,0.575159 c -0.0938,-1.140732 0.13284,-2.27135 0.629936,-3.273185 z m 7.856884,0.113688 c 0.569284,0.83129 0.982224,1.786579 1.192692,2.775024 l -2.06344,0.86558 c -0.283654,-0.962062 -0.686369,-1.892695 -1.201993,-2.77089 z m 62.166748,0.12299 c 2.41653,0 5.238957,1.376177 5.238957,3.351733 0,1.993196 -2.822427,3.368787 -5.238957,3.368787 -2.41653,0 -5.23844,-1.39323 -5.23844,-3.368787 0,-1.993195 2.82191,-3.351733 5.23844,-3.351733 z m 11.994619,0 c 2.41653,0 5.23844,1.376177 5.23844,3.351733 0,1.993196 -2.82191,3.368787 -5.23844,3.368787 -2.41653,0 -5.23896,-1.39323 -5.23896,-3.368787 0,-1.993195 2.82243,-3.351733 5.23896,-3.351733 z m 11.99461,0 c 2.41653,0 5.23844,1.376177 5.23844,3.351733 0,1.993196 -2.82191,3.368787 -5.23844,3.368787 -2.41653,0 -5.23895,-1.39323 -5.23895,-3.368787 0,-1.993195 2.82242,-3.351733 5.23895,-3.351733 z m -80.821419,0.282153 h 7.355107 c 1.358196,0 2.663403,0.441384 2.663403,1.746663 0,1.234723 -1.217048,1.816427 -2.257743,1.816427 h -7.760767 z m -7.793839,0.626835 c 0.520706,0.87697 0.924439,1.807195 1.203544,2.770374 l -2.852022,1.196826 c -0.506482,-0.86242 -0.898971,-1.79544 -1.159103,-2.789502 z m -3.19412,1.33997 c 0.266663,0.990336 0.659398,1.923339 1.162203,2.787944 l -1.982308,0.83199 c -0.558029,-0.84264 -0.950665,-1.806579 -1.14515,-2.795178 z m 8.640816,0.05168 c 0.104068,1.03934 -0.05882,2.073821 -0.451135,3.013253 l -1.012342,0.424781 c 0.233796,-0.926573 0.25092,-1.904072 0.08682,-2.860291 z m 47.202803,0.23925 c 1.97555,0 5.132504,0.652707 5.132504,2.099097 0,1.534585 -3.492224,2.134237 -5.097364,2.134237 -1.5875,0 -5.13302,-0.563996 -5.13302,-2.09858 0,-1.358195 2.89301,-2.134754 5.09788,-2.134754 z m -48.928796,0.484725 c 0.1557,0.973641 0.113714,1.967565 -0.170532,2.895948 l -1.477429,0.6196 c -0.02706,-0.901792 -0.15609,-1.794001 -0.38344,-2.662887 z m -9.228377,0.19482 c 0.204647,0.986851 0.597095,1.946595 1.147733,2.794145 l -1.398881,0.587044 c -0.284425,-0.387923 -0.529609,-0.81419 -0.723987,-1.277441 -0.208864,-0.497776 -0.347928,-1.006937 -0.422196,-1.51722 z m 6.809403,0.820105 c 0.222714,0.872051 0.3438,1.768302 0.357601,2.674256 l -1.403532,0.588594 c -0.652245,-0.638944 -1.226302,-1.343549 -1.709456,-2.106848 z m -3.140377,1.317749 c 0.478254,0.765086 1.044738,1.47264 1.684135,2.117184 l -1.455725,0.610815 c -0.861579,-0.447545 -1.600693,-1.113243 -2.18643,-1.906343 z m 6.600114,0.455787 c -0.44502,0.846875 -1.08787,1.593666 -1.894974,2.167826 0.443955,-0.547251 0.766867,-1.150234 0.981335,-1.784387 z m -8.9085,0.51263 c 0.567136,0.787033 1.27694,1.459579 2.101681,1.942 l -1.011825,0.424777 C 25.57047,99.744415 24.71788,99.136162 24.049178,98.333655 Z m 7.529256,0.06615 c -0.29651,0.72752 -0.755429,1.402259 -1.396297,1.980757 0.06039,-0.478344 0.09018,-0.95702 0.09198,-1.433504 z m -1.723925,0.72347 c -0.0086,0.433122 -0.04025,0.867939 -0.0987,1.302763 -0.353196,-0.263239 -0.689824,-0.543065 -1.010275,-0.837159 z m -1.525489,0.640271 c 0.347674,0.329028 0.714546,0.640387 1.100192,0.932246 -0.860795,0.0516 -1.662811,-0.0935 -2.389002,-0.391194 z m -1.755448,0.736906 c 0.602431,0.29107 1.258446,0.48318 1.95957,0.54984 -0.974848,0.17354 -1.957914,0.10921 -2.873726,-0.1664 z"
       fill='url(#gradient1)'
       sodipodi:nodetypes="cssssccssssssscccssssscccsccccccsccscccccccccssccccssscccsssssssssssssssssssssssssssssccsssssssccsscsscsssccscccccscccscsccssscccccccccccccccccccccccccccccccccccccccccccccccccccccccccccccsccccccccccccscssssssssssssssscssccccccccccccccccscssscscccccccccccccccccccccccccccccccccccccccccccccccccccccc"
       inkscape:export-filename="logo_full_fill_white.png"
       inkscape:export-xdpi="96"
       inkscape:export-ydpi="96" />
  </g>
</svg>
